<?xml version="1.0" encoding="utf-8"?>
<!-- Generator: Adobe Illustrator 18.0.0, SVG Export Plug-In . SVG Version: 6.00 Build 0)  -->
<!DOCTYPE svg PUBLIC "-//W3C//DTD SVG 1.1//EN" "http://www.w3.org/Graphics/SVG/1.1/DTD/svg11.dtd">
<svg version="1.1" id="Calque_1" xmlns="http://www.w3.org/2000/svg" xmlns:xlink="http://www.w3.org/1999/xlink" x="0px" y="0px"
	 viewBox="0 0 595.3 300.5" enable-background="new 0 0 595.3 300.5" xml:space="preserve">
<rect x="0" y="0" fill-rule="evenodd" clip-rule="evenodd" fill="#FEE9E3" width="595.3" height="300.5"/>
<line fill="none" stroke="#000000" stroke-width="0.5" x1="-0.2" y1="12.5" x2="595.4" y2="12.5"/>
<line fill="none" stroke="#000000" stroke-width="0.5" x1="343.6" y1="84.5" x2="595.4" y2="84.5"/>
<line fill="none" stroke="#000000" stroke-width="0.5" x1="343.7" y1="12.4" x2="343.7" y2="234.6"/>
<line fill="none" stroke="#000000" stroke-width="0.5" x1="502.1" y1="12.4" x2="502.1" y2="84.3"/>
<text transform="matrix(1 0 0 1 6.6119 9.5951)"><tspan x="0" y="0" font-family="'Frutiger-Bold'" font-size="8.5">Empfangssc</tspan><tspan x="41.9" y="0" font-family="'Frutiger-Bold'" font-size="8.5">h</tspan><tspan x="46.6" y="0" font-family="'Frutiger-Bold'" font-size="8.5">e</tspan><tspan x="50.7" y="0" font-family="'Frutiger-Bold'" font-size="8.5">i</tspan><tspan x="52.6" y="0" font-family="'Frutiger-Bold'" font-size="8.5">n</tspan></text>
<text transform="matrix(1 0 0 1 71.7818 9.5951)" font-family="'Frutiger-Bold'" font-size="8.5">/</text>
<text transform="matrix(1 0 0 1 76.669 9.5951)"><tspan x="0" y="0" font-family="'Frutiger-Bold'" font-size="8.5">Récé</tspan><tspan x="16.6" y="0" font-family="'Frutiger-Bold'" font-size="8.5">p</tspan><tspan x="21.3" y="0" font-family="'Frutiger-Bold'" font-size="8.5">iss</tspan><tspan x="29.8" y="0" font-family="'Frutiger-Bold'" font-size="8.5">é</tspan></text>
<text transform="matrix(1 0 0 1 115.8199 9.5951)" font-family="'Frutiger-Bold'" font-size="8.5">/</text>
<text transform="matrix(1 0 0 1 120.7076 9.5951)"><tspan x="0" y="0" font-family="'Frutiger-Bold'" font-size="8.5">R</tspan><tspan x="4.5" y="0" font-family="'Frutiger-Bold'" font-size="8.5">ic</tspan><tspan x="10.1" y="0" font-family="'Frutiger-Bold'" font-size="8.5">e</tspan><tspan x="14.3" y="0" font-family="'Frutiger-Bold'" font-size="8.5">v</tspan><tspan x="18.3" y="0" font-family="'Frutiger-Bold'" font-size="8.5">u</tspan><tspan x="22.9" y="0" font-family="'Frutiger-Bold'" font-size="8.5">t</tspan><tspan x="25.7" y="0" font-family="'Frutiger-Bold'" font-size="8.5">a</tspan></text>
<text transform="matrix(1 0 0 1 191.504 9.5951)"><tspan x="0" y="0" font-family="'Frutiger-Bold'" font-size="8.5">E</tspan><tspan x="4.1" y="0" font-family="'Frutiger-Bold'" font-size="8.5">in</tspan><tspan x="10.7" y="0" font-family="'Frutiger-Bold'" font-size="8.5">z</tspan><tspan x="14.2" y="0" font-family="'Frutiger-Bold'" font-size="8.5">a</tspan><tspan x="18.2" y="0" font-family="'Frutiger-Bold'" font-size="8.5">h</tspan><tspan x="22.9" y="0" font-family="'Frutiger-Bold'" font-size="8.5">l</tspan><tspan x="24.8" y="0" font-family="'Frutiger-Bold'" font-size="8.5">ung</tspan><tspan x="38.7" y="0" font-family="'Frutiger-Bold'" font-size="8.5"> </tspan><tspan x="40.6" y="0" font-family="'Frutiger-Bold'" font-size="8.5">Gi</tspan><tspan x="48" y="0" font-family="'Frutiger-Bold'" font-size="8.5">r</tspan><tspan x="50.5" y="0" font-family="'Frutiger-Bold'" font-size="8.5">o</tspan></text>
<text transform="matrix(1 0 0 1 329.5181 9.5951)"><tspan x="0" y="0" font-family="'Frutiger-Bold'" font-size="8.5">V</tspan><tspan x="4.2" y="0" font-family="'Frutiger-Bold'" font-size="8.5">e</tspan><tspan x="8.4" y="0" font-family="'Frutiger-Bold'" font-size="8.5">rs</tspan><tspan x="14.4" y="0" font-family="'Frutiger-Bold'" font-size="8.5">e</tspan><tspan x="18.5" y="0" font-family="'Frutiger-Bold'" font-size="8.5">m</tspan><tspan x="25.6" y="0" font-family="'Frutiger-Bold'" font-size="8.5">en</tspan><tspan x="34.4" y="0" font-family="'Frutiger-Bold'" font-size="8.5">t</tspan><tspan x="37.1" y="0" font-family="'Frutiger-Bold'" font-size="8.5"> </tspan><tspan x="39" y="0" font-family="'Frutiger-Bold'" font-size="8.5">V</tspan><tspan x="43.8" y="0" font-family="'Frutiger-Bold'" font-size="8.5">i</tspan><tspan x="45.7" y="0" font-family="'Frutiger-Bold'" font-size="8.5">r</tspan><tspan x="48.2" y="0" font-family="'Frutiger-Bold'" font-size="8.5">e</tspan><tspan x="52.4" y="0" font-family="'Frutiger-Bold'" font-size="8.5">m</tspan><tspan x="59.4" y="0" font-family="'Frutiger-Bold'" font-size="8.5">en</tspan><tspan x="68.2" y="0" font-family="'Frutiger-Bold'" font-size="8.5">t</tspan></text>
<text transform="matrix(1 0 0 1 487.8228 9.5951)"><tspan x="0" y="0" font-family="'Frutiger-Bold'" font-size="8.5">V</tspan><tspan x="4.2" y="0" font-family="'Frutiger-Bold'" font-size="8.5">e</tspan><tspan x="8.4" y="0" font-family="'Frutiger-Bold'" font-size="8.5">rs</tspan><tspan x="14.4" y="0" font-family="'Frutiger-Bold'" font-size="8.5">a</tspan><tspan x="18.4" y="0" font-family="'Frutiger-Bold'" font-size="8.5">m</tspan><tspan x="25.4" y="0" font-family="'Frutiger-Bold'" font-size="8.5">e</tspan><tspan x="29.6" y="0" font-family="'Frutiger-Bold'" font-size="8.5">nt</tspan><tspan x="36.9" y="0" font-family="'Frutiger-Bold'" font-size="8.5">o</tspan><tspan x="41.5" y="0" font-family="'Frutiger-Bold'" font-size="8.5"> </tspan><tspan x="43.5" y="0" font-family="'Frutiger-Bold'" font-size="8.5">Gir</tspan><tspan x="53.5" y="0" font-family="'Frutiger-Bold'" font-size="8.5">a</tspan><tspan x="57.5" y="0" font-family="'Frutiger-Bold'" font-size="8.5">t</tspan><tspan x="60.2" y="0" font-family="'Frutiger-Bold'" font-size="8.5">a</tspan></text>
<text transform="matrix(1 0 0 1 6.5587 20.9335)"><tspan x="0" y="0" fill="#ED1A3B" font-family="'Frutiger-Light'" font-size="6.3">Einzahlung</tspan><tspan x="29.3" y="0" fill="#ED1A3B" font-family="'Frutiger-Light'" font-size="6.3"> </tspan><tspan x="30.8" y="0" fill="#ED1A3B" font-family="'Frutiger-Light'" font-size="6.3">für</tspan></text>
<text transform="matrix(1 0 0 1 46.8917 20.9335)" fill="#ED1A3B" font-family="'Frutiger-Light'" font-size="6.3">/</text>
<text transform="matrix(1 0 0 1 49.9405 20.9335)"><tspan x="0" y="0" fill="#ED1A3B" font-family="'Frutiger-Light'" font-size="6.3">V</tspan><tspan x="3.2" y="0" fill="#ED1A3B" font-family="'Frutiger-Light'" font-size="6.3">ersement</tspan><tspan x="28" y="0" fill="#ED1A3B" font-family="'Frutiger-Light'" font-size="6.3"> </tspan><tspan x="29.5" y="0" fill="#ED1A3B" font-family="'Frutiger-Light'" font-size="6.3">pour</tspan></text>
<text transform="matrix(1 0 0 1 94.1226 20.9335)" fill="#ED1A3B" font-family="'Frutiger-Light'" font-size="6.3">/</text>
<text transform="matrix(1 0 0 1 97.1719 20.9335)"><tspan x="0" y="0" fill="#ED1A3B" font-family="'Frutiger-Light'" font-size="6.3">V</tspan><tspan x="3.2" y="0" fill="#ED1A3B" font-family="'Frutiger-Light'" font-size="6.3">ersamento</tspan><tspan x="31.4" y="0" fill="#ED1A3B" font-family="'Frutiger-Light'" font-size="6.3"> </tspan><tspan x="32.9" y="0" fill="#ED1A3B" font-family="'Frutiger-Light'" font-size="6.3">per</tspan></text>
<text transform="matrix(1 0 0 1 179.6705 20.9335)"><tspan x="0" y="0" fill="#ED1A3B" font-family="'Frutiger-Light'" font-size="6.3">Einzahlung</tspan><tspan x="29.3" y="0" fill="#ED1A3B" font-family="'Frutiger-Light'" font-size="6.3"> </tspan><tspan x="30.8" y="0" fill="#ED1A3B" font-family="'Frutiger-Light'" font-size="6.3">für</tspan></text>
<text transform="matrix(1 0 0 1 220.003 20.9335)" fill="#ED1A3B" font-family="'Frutiger-Light'" font-size="6.3">/</text>
<text transform="matrix(1 0 0 1 223.0523 20.9335)"><tspan x="0" y="0" fill="#ED1A3B" font-family="'Frutiger-Light'" font-size="6.3">V</tspan><tspan x="3.2" y="0" fill="#ED1A3B" font-family="'Frutiger-Light'" font-size="6.3">ersement</tspan><tspan x="28" y="0" fill="#ED1A3B" font-family="'Frutiger-Light'" font-size="6.3"> </tspan><tspan x="29.5" y="0" fill="#ED1A3B" font-family="'Frutiger-Light'" font-size="6.3">pour</tspan></text>
<text transform="matrix(1 0 0 1 267.2339 20.9335)" fill="#ED1A3B" font-family="'Frutiger-Light'" font-size="6.3">/</text>
<text transform="matrix(1 0 0 1 270.2833 20.9335)"><tspan x="0" y="0" fill="#ED1A3B" font-family="'Frutiger-Light'" font-size="6.3">V</tspan><tspan x="3.2" y="0" fill="#ED1A3B" font-family="'Frutiger-Light'" font-size="6.3">ersamento</tspan><tspan x="31.4" y="0" fill="#ED1A3B" font-family="'Frutiger-Light'" font-size="6.3"> </tspan><tspan x="32.9" y="0" fill="#ED1A3B" font-family="'Frutiger-Light'" font-size="6.3">per</tspan></text>
<text transform="matrix(1.0309 0 0 1 351.65 20.9335)" fill="#ED1A3B" font-family="'Frutiger-Light'" font-size="6.111">Zahlungszweck</text>
<text transform="matrix(1.0309 0 0 1 393.9039 20.9335)" fill="#ED1A3B" font-family="'Frutiger-Light'" font-size="6.111">/</text>
<text transform="matrix(1.0309 0 0 1 395.6558 20.9335)" fill="#ED1A3B" font-family="'Frutiger-Light'" font-size="6.111"> </text>
<text transform="matrix(1.0309 0 0 1 396.6382 20.9335)"><tspan x="0" y="0" fill="#ED1A3B" font-family="'Frutiger-Light'" font-size="6.111">Motif</tspan><tspan x="13.5" y="0" fill="#ED1A3B" font-family="'Frutiger-Light'" font-size="6.111"> </tspan><tspan x="15" y="0" fill="#ED1A3B" font-family="'Frutiger-Light'" font-size="6.111">versement</tspan></text>
<text transform="matrix(1.0309 0 0 1 442.1998 20.9335)" fill="#ED1A3B" font-family="'Frutiger-Light'" font-size="6.111">/</text>
<text transform="matrix(1.0309 0 0 1 444.9341 20.9335)"><tspan x="0" y="0" fill="#ED1A3B" font-family="'Frutiger-Light'" font-size="6.111">Motivo</tspan><tspan x="18" y="0" fill="#ED1A3B" font-family="'Frutiger-Light'" font-size="6.111"> </tspan><tspan x="19.5" y="0" fill="#ED1A3B" font-family="'Frutiger-Light'" font-size="6.111">versamento</tspan></text>
<g>
	<defs>
		<rect id="SVGID_1_" x="177.6" y="1.4" width="11.7" height="12.3"/>
	</defs>
	<clipPath id="SVGID_2_">
		<use xlink:href="#SVGID_1_"  overflow="visible"/>
	</clipPath>
	<polygon clip-path="url(#SVGID_2_)" fill="none" stroke="#000000" stroke-width="0.4546" points="179.3,4.6 179.3,7.7 182.3,7.7 
		182.3,10.7 185.3,10.7 185.3,7.7 188.3,7.7 188.3,4.6 185.3,4.6 185.3,1.6 182.3,1.6 182.3,4.6 	"/>
</g>
<g>
	<defs>
		<rect id="SVGID_3_" x="256.8" y="1.4" width="11.7" height="12.3"/>
	</defs>
	<clipPath id="SVGID_4_">
		<use xlink:href="#SVGID_3_"  overflow="visible"/>
	</clipPath>
	<polygon clip-path="url(#SVGID_4_)" fill="none" stroke="#000000" stroke-width="0.4546" points="257.2,4.6 257.2,7.7 260.2,7.7 
		260.2,10.7 263.3,10.7 263.3,7.7 266.2,7.7 266.2,4.6 263.2,4.6 263.2,1.6 260.2,1.6 260.2,4.6 	"/>
</g>
<g>
	<defs>
		<rect id="SVGID_5_" x="316.8" y="1.4" width="11.7" height="12.3"/>
	</defs>
	<clipPath id="SVGID_6_">
		<use xlink:href="#SVGID_5_"  overflow="visible"/>
	</clipPath>
	<polygon clip-path="url(#SVGID_6_)" fill="none" stroke="#000000" stroke-width="0.4546" points="317,4.6 317,7.7 320,7.7 
		320,10.7 323,10.7 323,7.7 326,7.7 326,4.6 323,4.6 323,1.6 320,1.6 320,4.6 	"/>
</g>
<g>
	<defs>
		<rect id="SVGID_7_" x="412.6" y="1.4" width="11.7" height="12.3"/>
	</defs>
	<clipPath id="SVGID_8_">
		<use xlink:href="#SVGID_7_"  overflow="visible"/>
	</clipPath>
	<polygon clip-path="url(#SVGID_8_)" fill="none" stroke="#000000" stroke-width="0.4546" points="412.8,4.6 412.8,7.7 415.9,7.7 
		415.9,10.7 418.9,10.7 418.9,7.7 421.9,7.7 421.9,4.6 418.9,4.6 418.9,1.6 415.9,1.6 415.9,4.6 	"/>
</g>
<g>
	<defs>
		<rect id="SVGID_9_" x="475.8" y="1.4" width="11.7" height="12.3"/>
	</defs>
	<clipPath id="SVGID_10_">
		<use xlink:href="#SVGID_9_"  overflow="visible"/>
	</clipPath>
	<polygon clip-path="url(#SVGID_10_)" fill="none" stroke="#000000" stroke-width="0.4546" points="476,4.6 476,7.7 479.1,7.7 
		479.1,10.7 482.1,10.7 482.1,7.7 485.1,7.7 485.1,4.6 482.1,4.6 482.1,1.6 479.1,1.6 479.1,4.6 	"/>
</g>
<g>
	<defs>
		<rect id="SVGID_11_" x="563.9" y="1.4" width="11.7" height="12.3"/>
	</defs>
	<clipPath id="SVGID_12_">
		<use xlink:href="#SVGID_11_"  overflow="visible"/>
	</clipPath>
	<polygon clip-path="url(#SVGID_12_)" fill="none" stroke="#000000" stroke-width="0.4546" points="564.1,4.6 564.1,7.7 567.1,7.7 
		567.1,10.7 570.1,10.7 570.1,7.7 573.1,7.7 573.1,4.6 570.1,4.6 570.1,1.6 567.1,1.6 567.1,4.6 	"/>
</g>
<line fill="none" stroke="#000000" x1="178.3" y1="221.6" x2="178.3" y2="228.6"/>
<line fill="none" stroke="#000000" x1="177.9" y1="228.2" x2="192" y2="228.2"/>
<line fill="none" stroke="#000000" x1="578.1" y1="221.6" x2="578.1" y2="228.6"/>
<line fill="none" stroke="#000000" x1="564.4" y1="228.2" x2="578.6" y2="228.2"/>
<rect x="170.7" y="228.9" fill-rule="evenodd" clip-rule="evenodd" fill="#FFFFFF" width="424.6" height="71.6"/>
<line fill="none" stroke="#000000" stroke-width="0.5" x1="170.8" y1="0" x2="170.8" y2="12.4"/>
<text transform="matrix(1 0 0 1 200.2613 214.517)" font-family="'OCRB10PitchBT-Regular'" font-size="12">1</text>
<text transform="matrix(1 0 0 1 206.8853 214.517)" font-family="'OCRB10PitchBT-Regular'" font-size="12">05</text>
<line fill="none" stroke="#ED1A3B" stroke-width="0.25" x1="349.5" y1="192.3" x2="579.1" y2="192.3"/>
<line fill="none" stroke="#ED1A3B" stroke-width="0.25" x1="349.5" y1="174.3" x2="579.1" y2="174.3"/>
<line fill="none" stroke="#ED1A3B" stroke-width="0.25" x1="349.5" y1="156.3" x2="579.1" y2="156.3"/>
<line fill="none" stroke="#ED1A3B" stroke-width="0.5" stroke-linecap="round" stroke-linejoin="round" stroke-dasharray="0,1.501" x1="351" y1="210.3" x2="578.4" y2="210.3"/>
<path fill="none" stroke="#ED1A3B" stroke-width="0.5" stroke-linecap="round" stroke-linejoin="round" d="M579.1,210.3L579.1,210.3
	 M349.5,210.3L349.5,210.3"/>
<text transform="matrix(1 0 0 1 349.356 128.5219)"><tspan x="0" y="0" fill="#ED1A3B" font-family="'Frutiger-Light'" font-size="6.3">E</tspan><tspan x="3.1" y="0" fill="#ED1A3B" font-family="'Frutiger-Light'" font-size="6.3">inb</tspan><tspan x="11.8" y="0" fill="#ED1A3B" font-family="'Frutiger-Light'" font-size="6.3">e</tspan><tspan x="15" y="0" fill="#ED1A3B" font-family="'Frutiger-Light'" font-size="6.3">za</tspan><tspan x="20.8" y="0" fill="#ED1A3B" font-family="'Frutiger-Light'" font-size="6.3">h</tspan><tspan x="24.3" y="0" fill="#ED1A3B" font-family="'Frutiger-Light'" font-size="6.3">lt</tspan><tspan x="27.9" y="0" fill="#ED1A3B" font-family="'Frutiger-Light'" font-size="6.3"> </tspan><tspan x="29.4" y="0" fill="#ED1A3B" font-family="'Frutiger-Light'" font-size="6.3">vo</tspan><tspan x="36" y="0" fill="#ED1A3B" font-family="'Frutiger-Light'" font-size="6.3">n</tspan></text>
<text transform="matrix(1 0 0 1 390.5074 128.5219)" fill="#ED1A3B" font-family="'Frutiger-Light'" font-size="6.3">/</text>
<text transform="matrix(1 0 0 1 393.6197 128.5219)"><tspan x="0" y="0" fill="#ED1A3B" font-family="'Frutiger-Light'" font-size="6.3">V</tspan><tspan x="3.2" y="0" fill="#ED1A3B" font-family="'Frutiger-Light'" font-size="6.3">e</tspan><tspan x="6.4" y="0" fill="#ED1A3B" font-family="'Frutiger-Light'" font-size="6.3">r</tspan><tspan x="8.5" y="0" fill="#ED1A3B" font-family="'Frutiger-Light'" font-size="6.3">s</tspan><tspan x="11" y="0" fill="#ED1A3B" font-family="'Frutiger-Light'" font-size="6.3">é</tspan><tspan x="14.2" y="0" fill="#ED1A3B" font-family="'Frutiger-Light'" font-size="6.3"> </tspan><tspan x="15.7" y="0" fill="#ED1A3B" font-family="'Frutiger-Light'" font-size="6.3">pa</tspan><tspan x="22.4" y="0" fill="#ED1A3B" font-family="'Frutiger-Light'" font-size="6.3">r</tspan></text>
<text transform="matrix(1 0 0 1 420.2623 128.5219)" fill="#ED1A3B" font-family="'Frutiger-Light'" font-size="6.3">/</text>
<text transform="matrix(1 0 0 1 423.3746 128.5219)"><tspan x="0" y="0" fill="#ED1A3B" font-family="'Frutiger-Light'" font-size="6.3">V</tspan><tspan x="3.2" y="0" fill="#ED1A3B" font-family="'Frutiger-Light'" font-size="6.3">e</tspan><tspan x="6.4" y="0" fill="#ED1A3B" font-family="'Frutiger-Light'" font-size="6.3">r</tspan><tspan x="8.5" y="0" fill="#ED1A3B" font-family="'Frutiger-Light'" font-size="6.3">s</tspan><tspan x="11" y="0" fill="#ED1A3B" font-family="'Frutiger-Light'" font-size="6.3">a</tspan><tspan x="14.1" y="0" fill="#ED1A3B" font-family="'Frutiger-Light'" font-size="6.3">to</tspan><tspan x="19.7" y="0" fill="#ED1A3B" font-family="'Frutiger-Light'" font-size="6.3"> </tspan><tspan x="21.2" y="0" fill="#ED1A3B" font-family="'Frutiger-Light'" font-size="6.3">d</tspan><tspan x="24.8" y="0" fill="#ED1A3B" font-family="'Frutiger-Light'" font-size="6.3">a</tspan></text>
<text transform="matrix(1 0 0 1 6.546 128.5219)" fill="#ED1A3B" font-family="'Frutiger-Light'" font-size="6">Konto</text>
<text transform="matrix(1 0 0 1 23.4542 128.5219)" fill="#ED1A3B" font-family="'Frutiger-Light'" font-size="6">/</text>
<text transform="matrix(1 0 0 1 26.358 128.5219)" fill="#ED1A3B" font-family="'Frutiger-Light'" font-size="6">Compte</text>
<text transform="matrix(1 0 0 1 48.2637 128.5219)" fill="#ED1A3B" font-family="'Frutiger-Light'" font-size="6">/</text>
<text transform="matrix(1 0 0 1 51.168 128.5219)" fill="#ED1A3B" font-family="'Frutiger-Light'" font-size="6">Conto</text>
<text transform="matrix(1 0 0 1 179.4595 128.5219)" fill="#ED1A3B" font-family="'Frutiger-Light'" font-size="6">Konto</text>
<text transform="matrix(1 0 0 1 196.3673 128.5219)" fill="#ED1A3B" font-family="'Frutiger-Light'" font-size="6">/</text>
<text transform="matrix(1 0 0 1 199.2716 128.5219)" fill="#ED1A3B" font-family="'Frutiger-Light'" font-size="6">Compte</text>
<text transform="matrix(1 0 0 1 221.1773 128.5219)" fill="#ED1A3B" font-family="'Frutiger-Light'" font-size="6">/</text>
<text transform="matrix(1 0 0 1 224.0816 128.5219)" fill="#ED1A3B" font-family="'Frutiger-Light'" font-size="6">Conto</text>
<text transform="matrix(1 0 0 1 6.546 167.5219)"><tspan x="0" y="0" fill="#ED1A3B" font-family="'Frutiger-Light'" font-size="6.3">Einbezahlt</tspan><tspan x="27.6" y="0" fill="#ED1A3B" font-family="'Frutiger-Light'" font-size="6.3"> </tspan><tspan x="29.1" y="0" fill="#ED1A3B" font-family="'Frutiger-Light'" font-size="6.3">von</tspan></text>
<text transform="matrix(1 0 0 1 47.2252 167.5219)" fill="#ED1A3B" font-family="'Frutiger-Light'" font-size="6.3">/</text>
<text transform="matrix(1 0 0 1 50.2745 167.5219)"><tspan x="0" y="0" fill="#ED1A3B" font-family="'Frutiger-Light'" font-size="6.3">V</tspan><tspan x="3.2" y="0" fill="#ED1A3B" font-family="'Frutiger-Light'" font-size="6.3">ersé</tspan><tspan x="14" y="0" fill="#ED1A3B" font-family="'Frutiger-Light'" font-size="6.3"> </tspan><tspan x="15.5" y="0" fill="#ED1A3B" font-family="'Frutiger-Light'" font-size="6.3">par</tspan></text>
<text transform="matrix(1 0 0 1 76.6021 167.5219)" fill="#ED1A3B" font-family="'Frutiger-Light'" font-size="6.3">/</text>
<text transform="matrix(1 0 0 1 79.6509 167.5219)"><tspan x="0" y="0" fill="#ED1A3B" font-family="'Frutiger-Light'" font-size="6.3">V</tspan><tspan x="3.2" y="0" fill="#ED1A3B" font-family="'Frutiger-Light'" font-size="6.3">ersato</tspan><tspan x="19.5" y="0" fill="#ED1A3B" font-family="'Frutiger-Light'" font-size="6.3"> </tspan><tspan x="21" y="0" fill="#ED1A3B" font-family="'Frutiger-Light'" font-size="6.3">da</tspan></text>
<line fill="none" stroke="#ED1A3B" stroke-width="0.25" x1="7.1" y1="192.3" x2="163.3" y2="192.3"/>
<line fill="none" stroke="#ED1A3B" stroke-width="0.25" x1="6.9" y1="228.3" x2="163.3" y2="228.3"/>
<line fill="none" stroke="#ED1A3B" stroke-width="0.25" x1="6.9" y1="210.3" x2="163.3" y2="210.3"/>
<text transform="matrix(1 0 0 1 91.4029 248.9242)"><tspan x="0" y="0" font-family="'Frutiger-Light'" font-size="6.3">Die</tspan><tspan x="8.9" y="0" font-family="'Frutiger-Light'" font-size="6.3"> </tspan><tspan x="10.5" y="0" font-family="'Frutiger-Light'" font-size="6.3">Annah</tspan><tspan x="28" y="0" font-family="'Frutiger-Light'" font-size="6.3">m</tspan><tspan x="33.3" y="0" font-family="'Frutiger-Light'" font-size="6.3">es</tspan><tspan x="39" y="0" font-family="'Frutiger-Light'" font-size="6.3">t</tspan><tspan x="41.1" y="0" font-family="'Frutiger-Light'" font-size="6.3">ell</tspan><tspan x="47.3" y="0" font-family="'Frutiger-Light'" font-size="6.3">e</tspan></text>
<text transform="matrix(1 0 0 1 91.4029 255.9242)"><tspan x="0" y="0" font-family="'Frutiger-Light'" font-size="6.3">L</tspan><tspan x="2.4" y="0" font-family="'Frutiger-Light'" font-size="6.3">’</tspan><tspan x="3.7" y="0" font-family="'Frutiger-Light'" font-size="6.3">offic</tspan><tspan x="15.2" y="0" font-family="'Frutiger-Light'" font-size="6.3">e</tspan><tspan x="18.4" y="0" font-family="'Frutiger-Light'" font-size="6.3"> </tspan><tspan x="20" y="0" font-family="'Frutiger-Light'" font-size="6.3">de</tspan><tspan x="26.7" y="0" font-family="'Frutiger-Light'" font-size="6.3"> </tspan><tspan x="28.3" y="0" font-family="'Frutiger-Light'" font-size="6.3">dép</tspan><tspan x="38.7" y="0" font-family="'Frutiger-Light'" font-size="6.3">ô</tspan><tspan x="42.1" y="0" font-family="'Frutiger-Light'" font-size="6.3">t</tspan></text>
<text transform="matrix(1 0 0 1 91.4029 262.9232)"><tspan x="0" y="0" font-family="'Frutiger-Light'" font-size="6.3">L</tspan><tspan x="2.4" y="0" font-family="'Frutiger-Light'" font-size="6.3">’</tspan><tspan x="3.7" y="0" font-family="'Frutiger-Light'" font-size="6.3">uffici</tspan><tspan x="16.8" y="0" font-family="'Frutiger-Light'" font-size="6.3">o</tspan><tspan x="20.2" y="0" font-family="'Frutiger-Light'" font-size="6.3"> </tspan><tspan x="21.8" y="0" font-family="'Frutiger-Light'" font-size="6.3">d</tspan><tspan x="25.4" y="0" font-family="'Frutiger-Light'" font-size="6.3">’</tspan><tspan x="26.7" y="0" font-family="'Frutiger-Light'" font-size="6.3">acc</tspan><tspan x="35.5" y="0" font-family="'Frutiger-Light'" font-size="6.3">e</tspan><tspan x="38.6" y="0" font-family="'Frutiger-Light'" font-size="6.3">t</tspan><tspan x="40.8" y="0" font-family="'Frutiger-Light'" font-size="6.3">t</tspan><tspan x="42.9" y="0" font-family="'Frutiger-Light'" font-size="6.3">azi</tspan><tspan x="50.2" y="0" font-family="'Frutiger-Light'" font-size="6.3">o</tspan><tspan x="53.7" y="0" font-family="'Frutiger-Light'" font-size="6.3">n</tspan><tspan x="57.2" y="0" font-family="'Frutiger-Light'" font-size="6.3">e</tspan></text>
<text transform="matrix(1 0 0 1 32.9097 143.9398)" fill="#ED1A3B" font-family="'ArialMT'" font-size="4">▼</text>
<text transform="matrix(1 0 0 1 76.1099 143.9398)" fill="#ED1A3B" font-family="'ArialMT'" font-size="4">▼</text>
<text transform="matrix(1 0 0 1 127.0191 159.6879)" font-family="'Frutiger-Light'" font-size="5.5">•</text>
<rect x="6.9" y="142.9" fill-rule="evenodd" clip-rule="evenodd" fill="#FFFFFF" width="12.4" height="15.6"/>
<rect x="6.9" y="142.9" fill="none" stroke="#ED1A3B" stroke-width="0.25" width="12.4" height="15.6"/>
<rect x="21.3" y="142.9" fill-rule="evenodd" clip-rule="evenodd" fill="#FFFFFF" width="12.4" height="15.6"/>
<rect x="21.3" y="142.9" fill="none" stroke="#ED1A3B" stroke-width="0.25" width="12.4" height="15.6"/>
<rect x="35.7" y="142.9" fill-rule="evenodd" clip-rule="evenodd" fill="#FFFFFF" width="12.4" height="15.6"/>
<rect x="35.7" y="142.9" fill="none" stroke="#ED1A3B" stroke-width="0.25" width="12.4" height="15.6"/>
<rect x="50.1" y="142.9" fill-rule="evenodd" clip-rule="evenodd" fill="#FFFFFF" width="12.4" height="15.6"/>
<rect x="50.1" y="142.9" fill="none" stroke="#ED1A3B" stroke-width="0.25" width="12.4" height="15.6"/>
<rect x="64.5" y="142.9" fill-rule="evenodd" clip-rule="evenodd" fill="#FFFFFF" width="12.4" height="15.6"/>
<rect x="64.5" y="142.9" fill="none" stroke="#ED1A3B" stroke-width="0.25" width="12.4" height="15.6"/>
<rect x="78.9" y="142.9" fill-rule="evenodd" clip-rule="evenodd" fill="#FFFFFF" width="12.4" height="15.6"/>
<rect x="78.9" y="142.9" fill="none" stroke="#ED1A3B" stroke-width="0.25" width="12.4" height="15.6"/>
<rect x="93.3" y="142.9" fill-rule="evenodd" clip-rule="evenodd" fill="#FFFFFF" width="12.4" height="15.6"/>
<rect x="93.3" y="142.9" fill="none" stroke="#ED1A3B" stroke-width="0.25" width="12.4" height="15.6"/>
<rect x="107.7" y="142.9" fill-rule="evenodd" clip-rule="evenodd" fill="#FFFFFF" width="12.4" height="15.6"/>
<rect x="107.7" y="142.9" fill="none" stroke="#ED1A3B" stroke-width="0.25" width="12.4" height="15.6"/>
<rect x="136.5" y="142.9" fill-rule="evenodd" clip-rule="evenodd" fill="#FFFFFF" width="12.4" height="15.6"/>
<rect x="136.5" y="142.9" fill="none" stroke="#ED1A3B" stroke-width="0.25" width="12.4" height="15.6"/>
<rect x="150.9" y="142.9" fill-rule="evenodd" clip-rule="evenodd" fill="#FFFFFF" width="12.4" height="15.6"/>
<rect x="150.9" y="142.9" fill="none" stroke="#ED1A3B" stroke-width="0.25" width="12.4" height="15.6"/>
<text transform="matrix(1 0 0 1 205.8233 143.9398)" fill="#ED1A3B" font-family="'ArialMT'" font-size="4">▼</text>
<text transform="matrix(1 0 0 1 249.0235 143.9398)" fill="#ED1A3B" font-family="'ArialMT'" font-size="4">▼</text>
<text transform="matrix(1 0 0 1 299.9322 159.6879)" font-family="'Frutiger-Light'" font-size="5.5">•</text>
<rect x="179.8" y="142.9" fill-rule="evenodd" clip-rule="evenodd" fill="#FFFFFF" width="12.4" height="15.6"/>
<rect x="179.8" y="142.9" fill="none" stroke="#ED1A3B" stroke-width="0.25" width="12.4" height="15.6"/>
<rect x="194.2" y="142.9" fill-rule="evenodd" clip-rule="evenodd" fill="#FFFFFF" width="12.4" height="15.6"/>
<rect x="194.2" y="142.9" fill="none" stroke="#ED1A3B" stroke-width="0.25" width="12.4" height="15.6"/>
<rect x="208.6" y="142.9" fill-rule="evenodd" clip-rule="evenodd" fill="#FFFFFF" width="12.4" height="15.6"/>
<rect x="208.6" y="142.9" fill="none" stroke="#ED1A3B" stroke-width="0.25" width="12.4" height="15.6"/>
<rect x="223" y="142.9" fill-rule="evenodd" clip-rule="evenodd" fill="#FFFFFF" width="12.4" height="15.6"/>
<rect x="223" y="142.9" fill="none" stroke="#ED1A3B" stroke-width="0.25" width="12.4" height="15.6"/>
<rect x="237.4" y="142.9" fill-rule="evenodd" clip-rule="evenodd" fill="#FFFFFF" width="12.4" height="15.6"/>
<rect x="237.4" y="142.9" fill="none" stroke="#ED1A3B" stroke-width="0.25" width="12.4" height="15.6"/>
<rect x="251.8" y="142.9" fill-rule="evenodd" clip-rule="evenodd" fill="#FFFFFF" width="12.4" height="15.6"/>
<rect x="251.8" y="142.9" fill="none" stroke="#ED1A3B" stroke-width="0.25" width="12.4" height="15.6"/>
<rect x="266.2" y="142.9" fill-rule="evenodd" clip-rule="evenodd" fill="#FFFFFF" width="12.4" height="15.6"/>
<rect x="266.2" y="142.9" fill="none" stroke="#ED1A3B" stroke-width="0.25" width="12.4" height="15.6"/>
<rect x="280.6" y="142.9" fill-rule="evenodd" clip-rule="evenodd" fill="#FFFFFF" width="12.4" height="15.6"/>
<rect x="280.6" y="142.9" fill="none" stroke="#ED1A3B" stroke-width="0.25" width="12.4" height="15.6"/>
<rect x="309.4" y="142.9" fill-rule="evenodd" clip-rule="evenodd" fill="#FFFFFF" width="12.4" height="15.6"/>
<rect x="309.4" y="142.9" fill="none" stroke="#ED1A3B" stroke-width="0.25" width="12.4" height="15.6"/>
<rect x="323.8" y="142.9" fill-rule="evenodd" clip-rule="evenodd" fill="#FFFFFF" width="12.4" height="15.6"/>
<rect x="323.8" y="142.9" fill="none" stroke="#ED1A3B" stroke-width="0.25" width="12.4" height="15.6"/>
<text transform="matrix(1 0 0 1 5.8741 137.1976)" font-family="'Frutiger-Bold'" font-size="8.5">CHF</text>
<text transform="matrix(1 0 0 1 178.7896 137.1976)" font-family="'Frutiger-Bold'" font-size="8.5">CHF</text>
<text transform="matrix(0 -1 1 0 589.2769 210.5365)" font-family="'Frutiger-Light'" font-size="5">4</text>
<text transform="matrix(0 -1 1 0 589.2776 207.7572)" font-family="'Frutiger-Light'" font-size="5">4</text>
<text transform="matrix(0 -1 1 0 589.2769 205.3275)" font-family="'Frutiger-Light'" font-size="5">1</text>
<text transform="matrix(0 -1 1 0 589.2776 203.0482)" font-family="'Frutiger-Light'" font-size="5">.02 </text>
<g>
	
		<circle fill="none" stroke="#ED1A3B" stroke-width="0.5" stroke-linecap="round" stroke-linejoin="round" stroke-dasharray="0,1.5105" cx="48.9" cy="266.8" r="26"/>
</g>
</svg>
