<?xml version="1.0" encoding="utf-8"?>
<!-- Generator: Adobe Illustrator 18.0.0, SVG Export Plug-In . SVG Version: 6.00 Build 0)  -->
<!DOCTYPE svg PUBLIC "-//W3C//DTD SVG 1.1//EN" "http://www.w3.org/Graphics/SVG/1.1/DTD/svg11.dtd">
<svg version="1.1" id="Calque_1" xmlns="http://www.w3.org/2000/svg" xmlns:xlink="http://www.w3.org/1999/xlink" x="0px" y="0px"
	 viewBox="0 0 595.4 300.5" enable-background="new 0 0 595.4 300.5" xml:space="preserve">
<rect x="0.3" y="0" fill="#FFF0E3" width="595" height="300.5"/>
<line fill="none" stroke="#000000" stroke-width="0.5" x1="0" y1="12.5" x2="595.4" y2="12.5"/>
<line fill="none" stroke="#000000" stroke-width="0.5" x1="344.1" y1="84.5" x2="595.4" y2="84.5"/>
<line fill="none" stroke="#000000" stroke-width="0.5" x1="344.2" y1="12.6" x2="344.2" y2="234.5"/>
<line fill="none" stroke="#000000" stroke-width="0.5" x1="502.6" y1="12.6" x2="502.6" y2="84.3"/>
<text transform="matrix(1 0 0 1 5.4324 9.2918)" font-family="'Frutiger-Bold'" font-size="8.5"> </text>
<text transform="matrix(1 0 0 1 7.0984 9.2918)"><tspan x="0" y="0" font-family="'Frutiger-Bold'" font-size="8.5">Empfangssc</tspan><tspan x="41.9" y="0" font-family="'Frutiger-Bold'" font-size="8.5">h</tspan><tspan x="46.6" y="0" font-family="'Frutiger-Bold'" font-size="8.5">e</tspan><tspan x="50.7" y="0" font-family="'Frutiger-Bold'" font-size="8.5">i</tspan><tspan x="52.6" y="0" font-family="'Frutiger-Bold'" font-size="8.5">n</tspan></text>
<text transform="matrix(1 0 0 1 70.6018 9.2918)" font-family="'Frutiger-Bold'" font-size="8.5"> </text>
<text transform="matrix(1 0 0 1 72.2683 9.2918)" font-family="'Frutiger-Bold'" font-size="8.5">/</text>
<text transform="matrix(1 0 0 1 75.4895 9.2918)" font-family="'Frutiger-Bold'" font-size="8.5"> </text>
<text transform="matrix(1 0 0 1 77.1555 9.2918)"><tspan x="0" y="0" font-family="'Frutiger-Bold'" font-size="8.5">Récé</tspan><tspan x="16.6" y="0" font-family="'Frutiger-Bold'" font-size="8.5">p</tspan><tspan x="21.3" y="0" font-family="'Frutiger-Bold'" font-size="8.5">iss</tspan><tspan x="29.8" y="0" font-family="'Frutiger-Bold'" font-size="8.5">é</tspan></text>
<text transform="matrix(1 0 0 1 114.6404 9.2918)" font-family="'Frutiger-Bold'" font-size="8.5"> </text>
<text transform="matrix(1 0 0 1 116.3064 9.2918)" font-family="'Frutiger-Bold'" font-size="8.5">/</text>
<text transform="matrix(1 0 0 1 119.5281 9.2918)" font-family="'Frutiger-Bold'" font-size="8.5"> </text>
<text transform="matrix(1 0 0 1 121.1941 9.2918)"><tspan x="0" y="0" font-family="'Frutiger-Bold'" font-size="8.5">R</tspan><tspan x="4.5" y="0" font-family="'Frutiger-Bold'" font-size="8.5">ic</tspan><tspan x="10.1" y="0" font-family="'Frutiger-Bold'" font-size="8.5">e</tspan><tspan x="14.3" y="0" font-family="'Frutiger-Bold'" font-size="8.5">v</tspan><tspan x="18.3" y="0" font-family="'Frutiger-Bold'" font-size="8.5">u</tspan><tspan x="22.9" y="0" font-family="'Frutiger-Bold'" font-size="8.5">t</tspan><tspan x="25.7" y="0" font-family="'Frutiger-Bold'" font-size="8.5">a</tspan></text>
<text transform="matrix(1 0 0 1 154.5227 9.2918)" font-family="'Frutiger-Bold'" font-size="8.5"> </text>
<text transform="matrix(1 0 0 1 178.3567 9.2918)" font-family="'Frutiger-Bold'" font-size="8.5"> </text>
<text transform="matrix(1 0 0 1 180.8728 9.2918)"><tspan x="0" y="0" font-family="'Frutiger-Bold'" font-size="8.5">E</tspan><tspan x="4.1" y="0" font-family="'Frutiger-Bold'" font-size="8.5">i</tspan><tspan x="5.9" y="0" font-family="'Frutiger-Bold'" font-size="8.5">nza</tspan><tspan x="18" y="0" font-family="'Frutiger-Bold'" font-size="8.5">h</tspan><tspan x="22.6" y="0" font-family="'Frutiger-Bold'" font-size="8.5">lu</tspan><tspan x="29" y="0" font-family="'Frutiger-Bold'" font-size="8.5">n</tspan><tspan x="33.6" y="0" font-family="'Frutiger-Bold'" font-size="8.5">g</tspan><tspan x="38.2" y="0" font-family="'Frutiger-Bold'" font-size="8.5"> </tspan><tspan x="40.2" y="0" font-family="'Frutiger-Bold'" font-size="8.5">G</tspan><tspan x="45.5" y="0" font-family="'Frutiger-Bold'" font-size="8.5">i</tspan><tspan x="47.4" y="0" font-family="'Frutiger-Bold'" font-size="8.5">r</tspan><tspan x="49.9" y="0" font-family="'Frutiger-Bold'" font-size="8.5">o</tspan><tspan x="54.5" y="0" font-family="'Frutiger-Bold'" font-size="8.5"> </tspan><tspan x="56.4" y="0" font-family="'Frutiger-Bold'" font-size="8.5"> </tspan><tspan x="58.3" y="0" font-family="'Frutiger-Bold'" font-size="8.5">   </tspan><tspan x="64" y="0" font-family="'Frutiger-Bold'" font-size="8.5"> </tspan><tspan x="65.9" y="0" font-family="'Frutiger-Bold'" font-size="8.5">  </tspan><tspan x="69.7" y="0" font-family="'Frutiger-Bold'" font-size="8.5"> </tspan><tspan x="71.6" y="0" font-family="'Frutiger-Bold'" font-size="8.5">    </tspan><tspan x="79.3" y="0" font-family="'Frutiger-Bold'" font-size="8.5"> </tspan><tspan x="81.2" y="0" font-family="'Frutiger-Bold'" font-size="8.5">  </tspan><tspan x="85" y="0" font-family="'Frutiger-Bold'" font-size="8.5"> </tspan><tspan x="86.9" y="0" font-family="'Frutiger-Bold'" font-size="8.5">    </tspan><tspan x="94.6" y="0" font-family="'Frutiger-Bold'" font-size="8.5"> </tspan><tspan x="96.5" y="0" font-family="'Frutiger-Bold'" font-size="8.5">  </tspan><tspan x="100.3" y="0" font-family="'Frutiger-Bold'" font-size="8.5"> </tspan><tspan x="102.2" y="0" font-family="'Frutiger-Bold'" font-size="8.5">    </tspan><tspan x="109.9" y="0" font-family="'Frutiger-Bold'" font-size="8.5"> </tspan></text>
<text transform="matrix(1 0 0 1 317.0086 9.2918)" font-family="'Frutiger-Bold'" font-size="8.5"> </text>
<text transform="matrix(1 0 0 1 320.7058 9.2918)"><tspan x="0" y="0" font-family="'Frutiger-Bold'" font-size="8.5"> </tspan><tspan x="1.9" y="0" font-family="'Frutiger-Bold'" font-size="8.5"> </tspan><tspan x="3.8" y="0" font-family="'Frutiger-Bold'" font-size="8.5">V</tspan><tspan x="8" y="0" font-family="'Frutiger-Bold'" font-size="8.5">e</tspan><tspan x="12.1" y="0" font-family="'Frutiger-Bold'" font-size="8.5">rsem</tspan><tspan x="29.1" y="0" font-family="'Frutiger-Bold'" font-size="8.5">e</tspan><tspan x="33.3" y="0" font-family="'Frutiger-Bold'" font-size="8.5">nt</tspan><tspan x="40.5" y="0" font-family="'Frutiger-Bold'" font-size="8.5"> </tspan><tspan x="42.5" y="0" font-family="'Frutiger-Bold'" font-size="8.5">V</tspan><tspan x="47.2" y="0" font-family="'Frutiger-Bold'" font-size="8.5">i</tspan><tspan x="49" y="0" font-family="'Frutiger-Bold'" font-size="8.5">r</tspan><tspan x="51.5" y="0" font-family="'Frutiger-Bold'" font-size="8.5">e</tspan><tspan x="55.7" y="0" font-family="'Frutiger-Bold'" font-size="8.5">m</tspan><tspan x="62.6" y="0" font-family="'Frutiger-Bold'" font-size="8.5">en</tspan><tspan x="71.4" y="0" font-family="'Frutiger-Bold'" font-size="8.5">t</tspan><tspan x="74.1" y="0" font-family="'Frutiger-Bold'" font-size="8.5"> </tspan><tspan x="76" y="0" font-family="'Frutiger-Bold'" font-size="8.5"> </tspan><tspan x="77.9" y="0" font-family="'Frutiger-Bold'" font-size="8.5">  </tspan><tspan x="81.7" y="0" font-family="'Frutiger-Bold'" font-size="8.5"> </tspan><tspan x="83.6" y="0" font-family="'Frutiger-Bold'" font-size="8.5">    </tspan><tspan x="91.3" y="0" font-family="'Frutiger-Bold'" font-size="8.5"> </tspan><tspan x="93.2" y="0" font-family="'Frutiger-Bold'" font-size="8.5">  </tspan><tspan x="97" y="0" font-family="'Frutiger-Bold'" font-size="8.5"> </tspan><tspan x="98.9" y="0" font-family="'Frutiger-Bold'" font-size="8.5">     </tspan><tspan x="108.4" y="0" font-family="'Frutiger-Bold'" font-size="8.5"> </tspan><tspan x="110.4" y="0" font-family="'Frutiger-Bold'" font-size="8.5"> </tspan><tspan x="112.3" y="0" font-family="'Frutiger-Bold'" font-size="8.5"> </tspan><tspan x="114.2" y="0" font-family="'Frutiger-Bold'" font-size="8.5">     </tspan><tspan x="123.7" y="0" font-family="'Frutiger-Bold'" font-size="8.5"> </tspan><tspan x="125.6" y="0" font-family="'Frutiger-Bold'" font-size="8.5"> </tspan><tspan x="127.5" y="0" font-family="'Frutiger-Bold'" font-size="8.5"> </tspan><tspan x="129.5" y="0" font-family="'Frutiger-Bold'" font-size="8.5">   </tspan><tspan x="135.2" y="0" font-family="'Frutiger-Bold'" font-size="8.5"> </tspan></text>
<text transform="matrix(1 0 0 1 486.8816 9.2918)" font-family="'Frutiger-Bold'" font-size="8.5"> </text>
<text transform="matrix(1 0 0 1 490.5701 9.2918)"><tspan x="0" y="0" font-family="'Frutiger-Bold'" font-size="8.5"> </tspan><tspan x="1.9" y="0" font-family="'Frutiger-Bold'" font-size="8.5">V</tspan><tspan x="6.1" y="0" font-family="'Frutiger-Bold'" font-size="8.5">ersame</tspan><tspan x="31.2" y="0" font-family="'Frutiger-Bold'" font-size="8.5">n</tspan><tspan x="35.8" y="0" font-family="'Frutiger-Bold'" font-size="8.5">t</tspan><tspan x="38.5" y="0" font-family="'Frutiger-Bold'" font-size="8.5">o</tspan><tspan x="43" y="0" font-family="'Frutiger-Bold'" font-size="8.5"> </tspan><tspan x="44.9" y="0" font-family="'Frutiger-Bold'" font-size="8.5">G</tspan><tspan x="50.3" y="0" font-family="'Frutiger-Bold'" font-size="8.5">i</tspan><tspan x="52.2" y="0" font-family="'Frutiger-Bold'" font-size="8.5">rat</tspan><tspan x="61.5" y="0" font-family="'Frutiger-Bold'" font-size="8.5">a</tspan></text>
<line fill="none" stroke="#000000" x1="179.3" y1="221.5" x2="179.3" y2="228.6"/>
<line fill="none" stroke="#000000" x1="178.7" y1="228.2" x2="192.9" y2="228.2"/>
<line fill="none" stroke="#000000" x1="579" y1="221.5" x2="579" y2="228.6"/>
<line fill="none" stroke="#000000" x1="565.3" y1="228.2" x2="579.5" y2="228.2"/>
<rect x="171.2" y="228.9" fill="#FFFFFF" width="424.2" height="71.6"/>
<line fill="none" stroke="#000000" stroke-width="0.5" x1="171.3" y1="0" x2="171.3" y2="12.4"/>
<text transform="matrix(1 0 0 1 200.3792 214.3441)"><tspan x="0" y="0" font-family="'OCRB10PitchBT-Regular'" font-size="11.5">60</tspan><tspan x="12.1" y="0" font-family="'OCRB10PitchBT-Regular'" font-size="11.5">9</tspan></text>
<text transform="matrix(1 0 0 1 91.8894 254.9095)"><tspan x="0" y="0" font-family="'Frutiger-Light'" font-size="6.3">Die</tspan><tspan x="8.9" y="0" font-family="'Frutiger-Light'" font-size="6.3"> </tspan><tspan x="10.5" y="0" font-family="'Frutiger-Light'" font-size="6.3">Annah</tspan><tspan x="28" y="0" font-family="'Frutiger-Light'" font-size="6.3">m</tspan><tspan x="33.3" y="0" font-family="'Frutiger-Light'" font-size="6.3">es</tspan><tspan x="39" y="0" font-family="'Frutiger-Light'" font-size="6.3">t</tspan><tspan x="41.1" y="0" font-family="'Frutiger-Light'" font-size="6.3">ell</tspan><tspan x="47.3" y="0" font-family="'Frutiger-Light'" font-size="6.3">e</tspan></text>
<text transform="matrix(1 0 0 1 91.8894 261.9095)"><tspan x="0" y="0" font-family="'Frutiger-Light'" font-size="6.3">L</tspan><tspan x="2.4" y="0" font-family="'Frutiger-Light'" font-size="6.3">’</tspan><tspan x="3.7" y="0" font-family="'Frutiger-Light'" font-size="6.3">offic</tspan><tspan x="15.2" y="0" font-family="'Frutiger-Light'" font-size="6.3">e</tspan><tspan x="18.4" y="0" font-family="'Frutiger-Light'" font-size="6.3"> </tspan><tspan x="20" y="0" font-family="'Frutiger-Light'" font-size="6.3">de</tspan><tspan x="26.7" y="0" font-family="'Frutiger-Light'" font-size="6.3"> </tspan><tspan x="28.3" y="0" font-family="'Frutiger-Light'" font-size="6.3">dép</tspan><tspan x="38.7" y="0" font-family="'Frutiger-Light'" font-size="6.3">ô</tspan><tspan x="42.1" y="0" font-family="'Frutiger-Light'" font-size="6.3">t</tspan></text>
<text transform="matrix(1 0 0 1 91.8894 268.9085)"><tspan x="0" y="0" font-family="'Frutiger-Light'" font-size="6.3">L</tspan><tspan x="2.4" y="0" font-family="'Frutiger-Light'" font-size="6.3">’</tspan><tspan x="3.7" y="0" font-family="'Frutiger-Light'" font-size="6.3">uffici</tspan><tspan x="16.8" y="0" font-family="'Frutiger-Light'" font-size="6.3">o</tspan><tspan x="20.2" y="0" font-family="'Frutiger-Light'" font-size="6.3"> </tspan><tspan x="21.8" y="0" font-family="'Frutiger-Light'" font-size="6.3">d</tspan><tspan x="25.4" y="0" font-family="'Frutiger-Light'" font-size="6.3">’</tspan><tspan x="26.7" y="0" font-family="'Frutiger-Light'" font-size="6.3">acc</tspan><tspan x="35.5" y="0" font-family="'Frutiger-Light'" font-size="6.3">e</tspan><tspan x="38.6" y="0" font-family="'Frutiger-Light'" font-size="6.3">t</tspan><tspan x="40.8" y="0" font-family="'Frutiger-Light'" font-size="6.3">t</tspan><tspan x="42.9" y="0" font-family="'Frutiger-Light'" font-size="6.3">azi</tspan><tspan x="50.2" y="0" font-family="'Frutiger-Light'" font-size="6.3">o</tspan><tspan x="53.7" y="0" font-family="'Frutiger-Light'" font-size="6.3">n</tspan><tspan x="57.2" y="0" font-family="'Frutiger-Light'" font-size="6.3">e</tspan></text>
<text transform="matrix(1 0 0 1 178.6463 20.7855)"><tspan x="0" y="0" fill="#F58220" font-family="'Frutiger-Light'" font-size="6.3">Ei</tspan><tspan x="4.5" y="0" fill="#F58220" font-family="'Frutiger-Light'" font-size="6.3">n</tspan><tspan x="7.9" y="0" fill="#F58220" font-family="'Frutiger-Light'" font-size="6.3">z</tspan><tspan x="10.5" y="0" fill="#F58220" font-family="'Frutiger-Light'" font-size="6.3">a</tspan><tspan x="13.5" y="0" fill="#F58220" font-family="'Frutiger-Light'" font-size="6.3">hlu</tspan><tspan x="21.8" y="0" fill="#F58220" font-family="'Frutiger-Light'" font-size="6.3">n</tspan><tspan x="25.2" y="0" fill="#F58220" font-family="'Frutiger-Light'" font-size="6.3">g</tspan><tspan x="28.7" y="0" fill="#F58220" font-family="'Frutiger-Light'" font-size="6.3"> </tspan><tspan x="30.1" y="0" fill="#F58220" font-family="'Frutiger-Light'" font-size="6.3">f</tspan><tspan x="31.9" y="0" fill="#F58220" font-family="'Frutiger-Light'" font-size="6.3">ü</tspan><tspan x="35.3" y="0" fill="#F58220" font-family="'Frutiger-Light'" font-size="6.3">r</tspan></text>
<text transform="matrix(1 0 0 1 216.7991 20.7855)" fill="#F58220" font-family="'Frutiger-Light'" font-size="6.3"> </text>
<text transform="matrix(1 0 0 1 218.034 20.7855)" fill="#F58220" font-family="'Frutiger-Light'" font-size="6.3">/</text>
<text transform="matrix(1 0 0 1 219.7224 20.7855)" fill="#F58220" font-family="'Frutiger-Light'" font-size="6.3"> </text>
<text transform="matrix(1 0 0 1 220.9568 20.7855)"><tspan x="0" y="0" fill="#F58220" font-family="'Frutiger-Light'" font-size="6.3">V</tspan><tspan x="3.1" y="0" fill="#F58220" font-family="'Frutiger-Light'" font-size="6.3">e</tspan><tspan x="6.2" y="0" fill="#F58220" font-family="'Frutiger-Light'" font-size="6.3">r</tspan><tspan x="8.2" y="0" fill="#F58220" font-family="'Frutiger-Light'" font-size="6.3">se</tspan><tspan x="13.7" y="0" fill="#F58220" font-family="'Frutiger-Light'" font-size="6.3">m</tspan><tspan x="18.9" y="0" fill="#F58220" font-family="'Frutiger-Light'" font-size="6.3">en</tspan><tspan x="25.5" y="0" fill="#F58220" font-family="'Frutiger-Light'" font-size="6.3">t</tspan><tspan x="27.5" y="0" fill="#F58220" font-family="'Frutiger-Light'" font-size="6.3"> </tspan><tspan x="28.9" y="0" fill="#F58220" font-family="'Frutiger-Light'" font-size="6.3">p</tspan><tspan x="32.5" y="0" fill="#F58220" font-family="'Frutiger-Light'" font-size="6.3">ou</tspan><tspan x="39.3" y="0" fill="#F58220" font-family="'Frutiger-Light'" font-size="6.3">r</tspan></text>
<text transform="matrix(1 0 0 1 262.9588 20.7855)" fill="#F58220" font-family="'Frutiger-Light'" font-size="6.3"> </text>
<text transform="matrix(1 0 0 1 264.1941 20.7855)" fill="#F58220" font-family="'Frutiger-Light'" font-size="6.3">/</text>
<text transform="matrix(1 0 0 1 265.8821 20.7855)" fill="#F58220" font-family="'Frutiger-Light'" font-size="6.3"> </text>
<text transform="matrix(1 0 0 1 267.117 20.7855)"><tspan x="0" y="0" fill="#F58220" font-family="'Frutiger-Light'" font-size="6.3">V</tspan><tspan x="3.1" y="0" fill="#F58220" font-family="'Frutiger-Light'" font-size="6.3">e</tspan><tspan x="6.2" y="0" fill="#F58220" font-family="'Frutiger-Light'" font-size="6.3">r</tspan><tspan x="8.2" y="0" fill="#F58220" font-family="'Frutiger-Light'" font-size="6.3">sa</tspan><tspan x="13.6" y="0" fill="#F58220" font-family="'Frutiger-Light'" font-size="6.3">m</tspan><tspan x="18.8" y="0" fill="#F58220" font-family="'Frutiger-Light'" font-size="6.3">en</tspan><tspan x="25.4" y="0" fill="#F58220" font-family="'Frutiger-Light'" font-size="6.3">to</tspan><tspan x="30.8" y="0" fill="#F58220" font-family="'Frutiger-Light'" font-size="6.3"> </tspan><tspan x="32.2" y="0" fill="#F58220" font-family="'Frutiger-Light'" font-size="6.3">p</tspan><tspan x="35.7" y="0" fill="#F58220" font-family="'Frutiger-Light'" font-size="6.3">e</tspan><tspan x="38.8" y="0" fill="#F58220" font-family="'Frutiger-Light'" font-size="6.3">r</tspan></text>
<rect x="177.1" y="141.6" fill="none" stroke="#F58220" stroke-width="1.701" width="114.8" height="17.2"/>
<rect x="306.8" y="141.6" fill="none" stroke="#F58220" stroke-width="1.701" width="28.6" height="17.2"/>
<text transform="matrix(1 0 0 1 297.9392 159.304)" font-family="'Frutiger-Light'" font-size="5.5">•</text>
<text transform="matrix(1.0309 0 0 1 351.4471 39.5404)"><tspan x="0" y="0" fill="#F58220" font-family="'Frutiger-Light'" font-size="6.111">Kei</tspan><tspan x="7.6" y="0" fill="#F58220" font-family="'Frutiger-Light'" font-size="6.111">n</tspan><tspan x="11" y="0" fill="#F58220" font-family="'Frutiger-Light'" font-size="6.111">e</tspan><tspan x="14" y="0" fill="#F58220" font-family="'Frutiger-Light'" font-size="6.111"> </tspan><tspan x="15.4" y="0" fill="#F58220" font-family="'Frutiger-Light'" font-size="6.111">Mi</tspan><tspan x="21.6" y="0" fill="#F58220" font-family="'Frutiger-Light'" font-size="6.111">tt</tspan><tspan x="25.5" y="0" fill="#F58220" font-family="'Frutiger-Light'" font-size="6.111">eil</tspan><tspan x="31.3" y="0" fill="#F58220" font-family="'Frutiger-Light'" font-size="6.111">u</tspan><tspan x="34.6" y="0" fill="#F58220" font-family="'Frutiger-Light'" font-size="6.111">n</tspan><tspan x="37.9" y="0" fill="#F58220" font-family="'Frutiger-Light'" font-size="6.111">g</tspan><tspan x="41.3" y="0" fill="#F58220" font-family="'Frutiger-Light'" font-size="6.111">e</tspan><tspan x="44.3" y="0" fill="#F58220" font-family="'Frutiger-Light'" font-size="6.111">n</tspan><tspan x="47.6" y="0" fill="#F58220" font-family="'Frutiger-Light'" font-size="6.111"> </tspan><tspan x="49" y="0" fill="#F58220" font-family="'Frutiger-Light'" font-size="6.111">a</tspan><tspan x="51.9" y="0" fill="#F58220" font-family="'Frutiger-Light'" font-size="6.111">n</tspan><tspan x="55.3" y="0" fill="#F58220" font-family="'Frutiger-Light'" font-size="6.111">brin</tspan><tspan x="65.3" y="0" fill="#F58220" font-family="'Frutiger-Light'" font-size="6.111">g</tspan><tspan x="68.7" y="0" fill="#F58220" font-family="'Frutiger-Light'" font-size="6.111">e</tspan><tspan x="71.7" y="0" fill="#F58220" font-family="'Frutiger-Light'" font-size="6.111">n</tspan></text>
<text transform="matrix(1.0309 0 0 1 351.4471 50.8763)"><tspan x="0" y="0" fill="#F58220" font-family="'Frutiger-Light'" font-size="6.111">Pas</tspan><tspan x="8.5" y="0" fill="#F58220" font-family="'Frutiger-Light'" font-size="6.111"> </tspan><tspan x="9.9" y="0" fill="#F58220" font-family="'Frutiger-Light'" font-size="6.111">de</tspan><tspan x="16.2" y="0" fill="#F58220" font-family="'Frutiger-Light'" font-size="6.111"> </tspan><tspan x="17.7" y="0" fill="#F58220" font-family="'Frutiger-Light'" font-size="6.111">co</tspan><tspan x="23.6" y="0" fill="#F58220" font-family="'Frutiger-Light'" font-size="6.111">mm</tspan><tspan x="33.7" y="0" fill="#F58220" font-family="'Frutiger-Light'" font-size="6.111">u</tspan><tspan x="37" y="0" fill="#F58220" font-family="'Frutiger-Light'" font-size="6.111">ni</tspan><tspan x="41.7" y="0" fill="#F58220" font-family="'Frutiger-Light'" font-size="6.111">ca</tspan><tspan x="47.3" y="0" fill="#F58220" font-family="'Frutiger-Light'" font-size="6.111">t</tspan><tspan x="49.3" y="0" fill="#F58220" font-family="'Frutiger-Light'" font-size="6.111">i</tspan><tspan x="50.6" y="0" fill="#F58220" font-family="'Frutiger-Light'" font-size="6.111">on</tspan><tspan x="57.3" y="0" fill="#F58220" font-family="'Frutiger-Light'" font-size="6.111">s</tspan></text>
<text transform="matrix(1.0309 0 0 1 351.4471 62.2122)"><tspan x="0" y="0" fill="#F58220" font-family="'Frutiger-Light'" font-size="6.111">N</tspan><tspan x="4" y="0" fill="#F58220" font-family="'Frutiger-Light'" font-size="6.111">on</tspan><tspan x="10.6" y="0" fill="#F58220" font-family="'Frutiger-Light'" font-size="6.111"> </tspan><tspan x="12" y="0" fill="#F58220" font-family="'Frutiger-Light'" font-size="6.111">a</tspan><tspan x="14.9" y="0" fill="#F58220" font-family="'Frutiger-Light'" font-size="6.111">gg</tspan><tspan x="21.6" y="0" fill="#F58220" font-family="'Frutiger-Light'" font-size="6.111">iu</tspan><tspan x="26.3" y="0" fill="#F58220" font-family="'Frutiger-Light'" font-size="6.111">ng</tspan><tspan x="33" y="0" fill="#F58220" font-family="'Frutiger-Light'" font-size="6.111">e</tspan><tspan x="36" y="0" fill="#F58220" font-family="'Frutiger-Light'" font-size="6.111">t</tspan><tspan x="37.9" y="0" fill="#F58220" font-family="'Frutiger-Light'" font-size="6.111">e</tspan><tspan x="40.9" y="0" fill="#F58220" font-family="'Frutiger-Light'" font-size="6.111"> </tspan><tspan x="42.3" y="0" fill="#F58220" font-family="'Frutiger-Light'" font-size="6.111">c</tspan><tspan x="45" y="0" fill="#F58220" font-family="'Frutiger-Light'" font-size="6.111">om</tspan><tspan x="53.4" y="0" fill="#F58220" font-family="'Frutiger-Light'" font-size="6.111">unicazi</tspan><tspan x="70.9" y="0" fill="#F58220" font-family="'Frutiger-Light'" font-size="6.111">o</tspan><tspan x="74.2" y="0" fill="#F58220" font-family="'Frutiger-Light'" font-size="6.111">n</tspan><tspan x="77.5" y="0" fill="#F58220" font-family="'Frutiger-Light'" font-size="6.111">i</tspan></text>
<text transform="matrix(1 0 0 1 177.5017 136.6717)"><tspan x="0" y="0" font-family="'Frutiger-Bold'" font-size="8.5">C</tspan><tspan x="4.8" y="0" font-family="'Frutiger-Bold'" font-size="8.5">H</tspan><tspan x="10.3" y="0" font-family="'Frutiger-Bold'" font-size="8.5">F</tspan></text>
<text transform="matrix(1 0 0 1 5.8469 168.3431)"><tspan x="0" y="0" fill="#F58220" font-family="'Frutiger-Light'" font-size="6.3">Einb</tspan><tspan x="11.4" y="0" fill="#F58220" font-family="'Frutiger-Light'" font-size="6.3">e</tspan><tspan x="14.5" y="0" fill="#F58220" font-family="'Frutiger-Light'" font-size="6.3">zahl</tspan><tspan x="25" y="0" fill="#F58220" font-family="'Frutiger-Light'" font-size="6.3">t</tspan><tspan x="27" y="0" fill="#F58220" font-family="'Frutiger-Light'" font-size="6.3"> </tspan><tspan x="28.5" y="0" fill="#F58220" font-family="'Frutiger-Light'" font-size="6.3">vo</tspan><tspan x="34.9" y="0" fill="#F58220" font-family="'Frutiger-Light'" font-size="6.3">n</tspan><tspan x="38.3" y="0" fill="#F58220" font-family="'Frutiger-Light'" font-size="6.3"> </tspan><tspan x="39.7" y="0" fill="#F58220" font-family="'Frutiger-Light'" font-size="6.3">/</tspan><tspan x="41.8" y="0" fill="#F58220" font-family="'Frutiger-Light'" font-size="6.3"> </tspan><tspan x="43.3" y="0" fill="#F58220" font-family="'Frutiger-Light'" font-size="6.3">V</tspan><tspan x="46.4" y="0" fill="#F58220" font-family="'Frutiger-Light'" font-size="6.3">er</tspan><tspan x="51.5" y="0" fill="#F58220" font-family="'Frutiger-Light'" font-size="6.3">s</tspan><tspan x="53.9" y="0" fill="#F58220" font-family="'Frutiger-Light'" font-size="6.3">é</tspan><tspan x="57" y="0" fill="#F58220" font-family="'Frutiger-Light'" font-size="6.3"> </tspan><tspan x="58.5" y="0" fill="#F58220" font-family="'Frutiger-Light'" font-size="6.3">p</tspan><tspan x="62" y="0" fill="#F58220" font-family="'Frutiger-Light'" font-size="6.3">a</tspan><tspan x="65" y="0" fill="#F58220" font-family="'Frutiger-Light'" font-size="6.3">r</tspan><tspan x="67" y="0" fill="#F58220" font-family="'Frutiger-Light'" font-size="6.3"> </tspan><tspan x="68.4" y="0" fill="#F58220" font-family="'Frutiger-Light'" font-size="6.3">/</tspan></text>
<text transform="matrix(1 0 0 1 77.7805 168.3431)" fill="#F58220" font-family="'Frutiger-Light'" font-size="6.3"> </text>
<text transform="matrix(1 0 0 1 79.4627 168.3431)"><tspan x="0" y="0" fill="#F58220" font-family="'Frutiger-Light'" font-size="6.3">V</tspan><tspan x="3.1" y="0" fill="#F58220" font-family="'Frutiger-Light'" font-size="6.3">e</tspan><tspan x="6.2" y="0" fill="#F58220" font-family="'Frutiger-Light'" font-size="6.3">rs</tspan><tspan x="10.6" y="0" fill="#F58220" font-family="'Frutiger-Light'" font-size="6.3">a</tspan><tspan x="13.6" y="0" fill="#F58220" font-family="'Frutiger-Light'" font-size="6.3">t</tspan><tspan x="15.6" y="0" fill="#F58220" font-family="'Frutiger-Light'" font-size="6.3">o</tspan><tspan x="19" y="0" fill="#F58220" font-family="'Frutiger-Light'" font-size="6.3"> </tspan><tspan x="20.5" y="0" fill="#F58220" font-family="'Frutiger-Light'" font-size="6.3">d</tspan><tspan x="24" y="0" fill="#F58220" font-family="'Frutiger-Light'" font-size="6.3">a</tspan></text>
<text transform="matrix(1 0 0 1 5.8469 20.785)"><tspan x="0" y="0" fill="#F58220" font-family="'Frutiger-Light'" font-size="6.3">Einz</tspan><tspan x="10.5" y="0" fill="#F58220" font-family="'Frutiger-Light'" font-size="6.3">ah</tspan><tspan x="16.9" y="0" fill="#F58220" font-family="'Frutiger-Light'" font-size="6.3">l</tspan><tspan x="18.4" y="0" fill="#F58220" font-family="'Frutiger-Light'" font-size="6.3">u</tspan><tspan x="21.8" y="0" fill="#F58220" font-family="'Frutiger-Light'" font-size="6.3">n</tspan><tspan x="25.2" y="0" fill="#F58220" font-family="'Frutiger-Light'" font-size="6.3">g</tspan><tspan x="28.7" y="0" fill="#F58220" font-family="'Frutiger-Light'" font-size="6.3"> </tspan><tspan x="30.1" y="0" fill="#F58220" font-family="'Frutiger-Light'" font-size="6.3">f</tspan><tspan x="31.9" y="0" fill="#F58220" font-family="'Frutiger-Light'" font-size="6.3">ü</tspan><tspan x="35.3" y="0" fill="#F58220" font-family="'Frutiger-Light'" font-size="6.3">r</tspan></text>
<text transform="matrix(1 0 0 1 43.9998 20.785)" fill="#F58220" font-family="'Frutiger-Light'" font-size="6.3"> </text>
<text transform="matrix(1 0 0 1 45.2346 20.785)" fill="#F58220" font-family="'Frutiger-Light'" font-size="6.3">/</text>
<text transform="matrix(1 0 0 1 46.9231 20.785)" fill="#F58220" font-family="'Frutiger-Light'" font-size="6.3"> </text>
<text transform="matrix(1 0 0 1 48.158 20.785)"><tspan x="0" y="0" fill="#F58220" font-family="'Frutiger-Light'" font-size="6.3">V</tspan><tspan x="3.1" y="0" fill="#F58220" font-family="'Frutiger-Light'" font-size="6.3">e</tspan><tspan x="6.2" y="0" fill="#F58220" font-family="'Frutiger-Light'" font-size="6.3">rs</tspan><tspan x="10.6" y="0" fill="#F58220" font-family="'Frutiger-Light'" font-size="6.3">ement</tspan><tspan x="27.5" y="0" fill="#F58220" font-family="'Frutiger-Light'" font-size="6.3"> </tspan><tspan x="28.9" y="0" fill="#F58220" font-family="'Frutiger-Light'" font-size="6.3">pou</tspan><tspan x="39.2" y="0" fill="#F58220" font-family="'Frutiger-Light'" font-size="6.3">r</tspan></text>
<text transform="matrix(1 0 0 1 90.1599 20.785)" fill="#F58220" font-family="'Frutiger-Light'" font-size="6.3"> </text>
<text transform="matrix(1 0 0 1 91.3948 20.785)" fill="#F58220" font-family="'Frutiger-Light'" font-size="6.3">/</text>
<text transform="matrix(1 0 0 1 93.0833 20.785)" fill="#F58220" font-family="'Frutiger-Light'" font-size="6.3"> </text>
<text transform="matrix(1 0 0 1 94.3181 20.785)"><tspan x="0" y="0" fill="#F58220" font-family="'Frutiger-Light'" font-size="6.3">V</tspan><tspan x="3.1" y="0" fill="#F58220" font-family="'Frutiger-Light'" font-size="6.3">er</tspan><tspan x="8.2" y="0" fill="#F58220" font-family="'Frutiger-Light'" font-size="6.3">s</tspan><tspan x="10.6" y="0" fill="#F58220" font-family="'Frutiger-Light'" font-size="6.3">a</tspan><tspan x="13.6" y="0" fill="#F58220" font-family="'Frutiger-Light'" font-size="6.3">me</tspan><tspan x="21.9" y="0" fill="#F58220" font-family="'Frutiger-Light'" font-size="6.3">nt</tspan><tspan x="27.4" y="0" fill="#F58220" font-family="'Frutiger-Light'" font-size="6.3">o</tspan><tspan x="30.8" y="0" fill="#F58220" font-family="'Frutiger-Light'" font-size="6.3"> </tspan><tspan x="32.2" y="0" fill="#F58220" font-family="'Frutiger-Light'" font-size="6.3">p</tspan><tspan x="35.7" y="0" fill="#F58220" font-family="'Frutiger-Light'" font-size="6.3">e</tspan><tspan x="38.8" y="0" fill="#F58220" font-family="'Frutiger-Light'" font-size="6.3">r</tspan></text>
<text transform="matrix(1 0 0 1 178.656 128.8045)"><tspan x="0" y="0" fill="#F58220" font-family="'Frutiger-Light'" font-size="6.3">Ko</tspan><tspan x="6.8" y="0" fill="#F58220" font-family="'Frutiger-Light'" font-size="6.3">nt</tspan><tspan x="12.2" y="0" fill="#F58220" font-family="'Frutiger-Light'" font-size="6.3">o</tspan><tspan x="15.6" y="0" fill="#F58220" font-family="'Frutiger-Light'" font-size="6.3"> </tspan><tspan x="17.1" y="0" fill="#F58220" font-family="'Frutiger-Light'" font-size="6.3">/</tspan><tspan x="19.2" y="0" fill="#F58220" font-family="'Frutiger-Light'" font-size="6.3"> </tspan><tspan x="20.6" y="0" fill="#F58220" font-family="'Frutiger-Light'" font-size="6.3">C</tspan><tspan x="24.2" y="0" fill="#F58220" font-family="'Frutiger-Light'" font-size="6.3">o</tspan><tspan x="27.6" y="0" fill="#F58220" font-family="'Frutiger-Light'" font-size="6.3">m</tspan><tspan x="32.8" y="0" fill="#F58220" font-family="'Frutiger-Light'" font-size="6.3">pt</tspan><tspan x="38.3" y="0" fill="#F58220" font-family="'Frutiger-Light'" font-size="6.3">e</tspan><tspan x="41.4" y="0" fill="#F58220" font-family="'Frutiger-Light'" font-size="6.3"> </tspan><tspan x="42.9" y="0" fill="#F58220" font-family="'Frutiger-Light'" font-size="6.3">/</tspan><tspan x="45" y="0" fill="#F58220" font-family="'Frutiger-Light'" font-size="6.3"> </tspan><tspan x="46.4" y="0" fill="#F58220" font-family="'Frutiger-Light'" font-size="6.3">C</tspan><tspan x="50" y="0" fill="#F58220" font-family="'Frutiger-Light'" font-size="6.3">o</tspan><tspan x="53.4" y="0" fill="#F58220" font-family="'Frutiger-Light'" font-size="6.3">n</tspan><tspan x="56.9" y="0" fill="#F58220" font-family="'Frutiger-Light'" font-size="6.3">t</tspan><tspan x="58.9" y="0" fill="#F58220" font-family="'Frutiger-Light'" font-size="6.3">o</tspan></text>
<text transform="matrix(1 0 0 1 5.8596 128.8045)"><tspan x="0" y="0" fill="#F58220" font-family="'Frutiger-Light'" font-size="6.3">K</tspan><tspan x="3.4" y="0" fill="#F58220" font-family="'Frutiger-Light'" font-size="6.3">o</tspan><tspan x="6.8" y="0" fill="#F58220" font-family="'Frutiger-Light'" font-size="6.3">n</tspan><tspan x="10.2" y="0" fill="#F58220" font-family="'Frutiger-Light'" font-size="6.3">to</tspan><tspan x="15.6" y="0" fill="#F58220" font-family="'Frutiger-Light'" font-size="6.3"> </tspan><tspan x="17.1" y="0" fill="#F58220" font-family="'Frutiger-Light'" font-size="6.3">/</tspan><tspan x="19.2" y="0" fill="#F58220" font-family="'Frutiger-Light'" font-size="6.3"> </tspan><tspan x="20.6" y="0" fill="#F58220" font-family="'Frutiger-Light'" font-size="6.3">C</tspan><tspan x="24.2" y="0" fill="#F58220" font-family="'Frutiger-Light'" font-size="6.3">ompt</tspan><tspan x="38.3" y="0" fill="#F58220" font-family="'Frutiger-Light'" font-size="6.3">e</tspan><tspan x="41.4" y="0" fill="#F58220" font-family="'Frutiger-Light'" font-size="6.3"> </tspan><tspan x="42.9" y="0" fill="#F58220" font-family="'Frutiger-Light'" font-size="6.3">/</tspan><tspan x="45" y="0" fill="#F58220" font-family="'Frutiger-Light'" font-size="6.3"> </tspan><tspan x="46.4" y="0" fill="#F58220" font-family="'Frutiger-Light'" font-size="6.3">Co</tspan><tspan x="53.4" y="0" fill="#F58220" font-family="'Frutiger-Light'" font-size="6.3">n</tspan><tspan x="56.9" y="0" fill="#F58220" font-family="'Frutiger-Light'" font-size="6.3">t</tspan><tspan x="58.9" y="0" fill="#F58220" font-family="'Frutiger-Light'" font-size="6.3">o</tspan></text>
<text transform="matrix(1 0 0 1 4.8718 136.6717)"><tspan x="0" y="0" font-family="'Frutiger-Bold'" font-size="8.5">CH</tspan><tspan x="10.3" y="0" font-family="'Frutiger-Bold'" font-size="8.5">F</tspan></text>
<text transform="matrix(1.0309 0 0 1 351.4471 128.807)"><tspan x="0" y="0" fill="#F58220" font-family="'Frutiger-Light'" font-size="6.111">Ei</tspan><tspan x="4.3" y="0" fill="#F58220" font-family="'Frutiger-Light'" font-size="6.111">nb</tspan><tspan x="11.1" y="0" fill="#F58220" font-family="'Frutiger-Light'" font-size="6.111">ez</tspan><tspan x="16.6" y="0" fill="#F58220" font-family="'Frutiger-Light'" font-size="6.111">a</tspan><tspan x="19.5" y="0" fill="#F58220" font-family="'Frutiger-Light'" font-size="6.111">hl</tspan><tspan x="24.2" y="0" fill="#F58220" font-family="'Frutiger-Light'" font-size="6.111">t</tspan><tspan x="26.2" y="0" fill="#F58220" font-family="'Frutiger-Light'" font-size="6.111"> </tspan><tspan x="27.6" y="0" fill="#F58220" font-family="'Frutiger-Light'" font-size="6.111">v</tspan><tspan x="30.5" y="0" fill="#F58220" font-family="'Frutiger-Light'" font-size="6.111">on</tspan><tspan x="37.1" y="0" fill="#F58220" font-family="'Frutiger-Light'" font-size="6.111"> </tspan><tspan x="38.5" y="0" fill="#F58220" font-family="'Frutiger-Light'" font-size="6.111">/</tspan></text>
<text transform="matrix(1.0309 0 0 1 393.4998 128.807)" fill="#F58220" font-family="'Frutiger-Light'" font-size="6.111"> </text>
<text transform="matrix(1.0309 0 0 1 395.1883 128.807)"><tspan x="0" y="0" fill="#F58220" font-family="'Frutiger-Light'" font-size="6.111">V</tspan><tspan x="3" y="0" fill="#F58220" font-family="'Frutiger-Light'" font-size="6.111">e</tspan><tspan x="6" y="0" fill="#F58220" font-family="'Frutiger-Light'" font-size="6.111">r</tspan><tspan x="8" y="0" fill="#F58220" font-family="'Frutiger-Light'" font-size="6.111">sé</tspan><tspan x="13.3" y="0" fill="#F58220" font-family="'Frutiger-Light'" font-size="6.111"> </tspan><tspan x="14.7" y="0" fill="#F58220" font-family="'Frutiger-Light'" font-size="6.111">p</tspan><tspan x="18.2" y="0" fill="#F58220" font-family="'Frutiger-Light'" font-size="6.111">a</tspan><tspan x="21" y="0" fill="#F58220" font-family="'Frutiger-Light'" font-size="6.111">r</tspan><tspan x="23" y="0" fill="#F58220" font-family="'Frutiger-Light'" font-size="6.111"> </tspan><tspan x="24.4" y="0" fill="#F58220" font-family="'Frutiger-Light'" font-size="6.111">/</tspan></text>
<text transform="matrix(1.0309 0 0 1 423.2039 128.807)" fill="#F58220" font-family="'Frutiger-Light'" font-size="6.111"> </text>
<text transform="matrix(1.0309 0 0 1 424.8924 128.807)"><tspan x="0" y="0" fill="#F58220" font-family="'Frutiger-Light'" font-size="6.111">V</tspan><tspan x="3" y="0" fill="#F58220" font-family="'Frutiger-Light'" font-size="6.111">e</tspan><tspan x="6" y="0" fill="#F58220" font-family="'Frutiger-Light'" font-size="6.111">r</tspan><tspan x="8" y="0" fill="#F58220" font-family="'Frutiger-Light'" font-size="6.111">sato</tspan><tspan x="18.5" y="0" fill="#F58220" font-family="'Frutiger-Light'" font-size="6.111"> </tspan><tspan x="19.9" y="0" fill="#F58220" font-family="'Frutiger-Light'" font-size="6.111">d</tspan><tspan x="23.3" y="0" fill="#F58220" font-family="'Frutiger-Light'" font-size="6.111">a</tspan></text>
<rect x="349.8" y="90" fill="none" stroke="#F58220" stroke-width="0.425" width="237.7" height="21.2"/>
<rect x="398.3" y="85.5" fill="#FFF0E3" width="138.9" height="6.1"/>
<text transform="matrix(1 0 0 1 408.1775 91.6058)"><tspan x="0" y="0" fill="#F58220" font-family="'Frutiger-Light'" font-size="6">Refe</tspan><tspan x="11.2" y="0" fill="#F58220" font-family="'Frutiger-Light'" font-size="6">r</tspan><tspan x="13.1" y="0" fill="#F58220" font-family="'Frutiger-Light'" font-size="6">e</tspan><tspan x="16.2" y="0" fill="#F58220" font-family="'Frutiger-Light'" font-size="6">n</tspan><tspan x="19.6" y="0" fill="#F58220" font-family="'Frutiger-Light'" font-size="6">z-N</tspan><tspan x="28.1" y="0" fill="#F58220" font-family="'Frutiger-Light'" font-size="6">r</tspan></text>
<text transform="matrix(1 0 0 1 438.5076 91.6058)"><tspan x="0" y="0" fill="#F58220" font-family="'Frutiger-Light'" font-size="6">.</tspan><tspan x="1.6" y="0" fill="#F58220" font-family="'Frutiger-Light'" font-size="6">/</tspan></text>
<text transform="matrix(1 0 0 1 442.5633 91.6058)" fill="#F58220" font-family="'Frutiger-Light'" font-size="6">N</text>
<text transform="matrix(1 0 0 1 446.6248 89.2061)" fill="#F58220" font-family="'Frutiger-Light'" font-size="3.9">o</text>
<text transform="matrix(1 0 0 1 448.8327 89.1046)" fill="#F58220" font-family="'Frutiger-Light'" font-size="3.9"> </text>
<text transform="matrix(1 0 0 1 449.6736 91.6058)"><tspan x="0" y="0" fill="#F58220" font-family="'Frutiger-Light'" font-size="6">de</tspan><tspan x="6.5" y="0" fill="#F58220" font-family="'Frutiger-Light'" font-size="6"> </tspan><tspan x="8" y="0" fill="#F58220" font-family="'Frutiger-Light'" font-size="6">r</tspan><tspan x="9.9" y="0" fill="#F58220" font-family="'Frutiger-Light'" font-size="6">é</tspan><tspan x="13" y="0" fill="#F58220" font-family="'Frutiger-Light'" font-size="6">fé</tspan><tspan x="17.8" y="0" fill="#F58220" font-family="'Frutiger-Light'" font-size="6">r</tspan><tspan x="19.8" y="0" fill="#F58220" font-family="'Frutiger-Light'" font-size="6">en</tspan><tspan x="26.2" y="0" fill="#F58220" font-family="'Frutiger-Light'" font-size="6">c</tspan></text>
<text transform="matrix(1 0 0 1 479.284 91.6058)"><tspan x="0" y="0" fill="#F58220" font-family="'Frutiger-Light'" font-size="6">e</tspan><tspan x="3.4" y="0" fill="#F58220" font-family="'Frutiger-Light'" font-size="6">/</tspan></text>
<text transform="matrix(1 0 0 1 484.6717 91.6058)" fill="#F58220" font-family="'Frutiger-Light'" font-size="6">N</text>
<text transform="matrix(1 0 0 1 488.7331 89.2061)" fill="#F58220" font-family="'Frutiger-Light'" font-size="3.9">o</text>
<text transform="matrix(1 0 0 1 490.9401 89.1046)" fill="#F58220" font-family="'Frutiger-Light'" font-size="3.9"> </text>
<text transform="matrix(1 0 0 1 491.782 91.6058)"><tspan x="0" y="0" fill="#F58220" font-family="'Frutiger-Light'" font-size="6">d</tspan><tspan x="3.4" y="0" fill="#F58220" font-family="'Frutiger-Light'" font-size="6">i</tspan><tspan x="4.9" y="0" fill="#F58220" font-family="'Frutiger-Light'" font-size="6"> </tspan><tspan x="6.4" y="0" fill="#F58220" font-family="'Frutiger-Light'" font-size="6">riferi</tspan><tspan x="18.2" y="0" fill="#F58220" font-family="'Frutiger-Light'" font-size="6">m</tspan><tspan x="23.3" y="0" fill="#F58220" font-family="'Frutiger-Light'" font-size="6">ent</tspan><tspan x="31.8" y="0" fill="#F58220" font-family="'Frutiger-Light'" font-size="6">o</tspan></text>
<line fill="none" stroke="#F58220" stroke-width="0.425" x1="349.8" y1="93.5" x2="587.3" y2="93.5"/>
<rect x="4.2" y="141.6" fill="none" stroke="#F58220" stroke-width="1.701" width="114.8" height="17.2"/>
<rect x="133.9" y="141.6" fill="none" stroke="#F58220" stroke-width="1.701" width="28.6" height="17.2"/>
<text transform="matrix(1 0 0 1 125.054 159.304)" font-family="'Frutiger-Light'" font-size="5.5">•</text>
<text transform="matrix(-6.123234e-17 -1 1 -6.123234e-17 588.1969 211.6507)" font-family="'Frutiger-Light'" font-size="5">442.05</text>
<circle fill="none" stroke="#F58220" stroke-width="0.5" stroke-linecap="round" stroke-miterlimit="10" stroke-dasharray="0,1.4735" cx="49.9" cy="268.3" r="25.3"/>
<circle fill="none" stroke="#F58220" stroke-width="0.5" stroke-linecap="round" stroke-miterlimit="10" stroke-dasharray="0,1.4735" cx="549.9" cy="48.9" r="25.3"/>
</svg>
